<svg version="1.2" xmlns="http://www.w3.org/2000/svg" viewBox="0 0 1000 1000" width="2000" height="2000">
	<style>
		.s0 { fill: #ffcd35 } 
		.s1 { fill: #ffffff } 
		.s2 { fill: #122436 } 
		.s3 { fill: #4ea4db } 
	</style>
	<g>
		<g>
			<g>
				<g>
					<g>
						<g>
							<g>
								<g>
									<g>
										<g>
											<g>
												<path fill-rule="evenodd" class="s0" d="m415.66 654.2l288.11-421.07 164.56 112.61-288.11 421.06z"/>
											</g>
										</g>
									</g>
								</g>
							</g>
						</g>
					</g>
					<g>
						<g>
							<g>
								<g>
									<g>
										<g>
											<g>
												<path fill-rule="evenodd" class="s1" d="m686.29 258.76l17.5-25.59 164.57 112.61-17.51 25.58z"/>
											</g>
										</g>
									</g>
								</g>
							</g>
						</g>
					</g>
					<g>
						<g>
							<g>
								<g>
									<g>
										<g>
											<g>
												<g>
													<path fill-rule="evenodd" class="s1" d="m524.8 728.9l55.4 37.9z"/>
												</g>
											</g>
										</g>
									</g>
								</g>
							</g>
						</g>
					</g>
					<g>
						<g>
							<g>
								<g>
									<g>
										<g>
											<g>
												<path class="s2" d="m582.8 780.7l-181-123.9 299.4-437.6 181 123.9zm-153.2-129.1l148 101.3 276.9-404.6-148-101.3z"/>
											</g>
										</g>
									</g>
								</g>
							</g>
						</g>
					</g>
					<g>
						<g>
							<g>
								<g>
									<g>
										<g>
											<g>
												<path class="s2" d="m715.1 535.5l-16.5-11.3 11.3-16.5 16.5 11.3zm-33.1-22.6l-16.5-11.3 11.3-16.5 16.5 11.3zm-33-22.6l-16.5-11.3 11.3-16.5 16.5 11.3zm-33-22.6l-16.5-11.3 11.3-16.5 16.5 11.3zm-33-22.6l-16.5-11.3 11.3-16.5 16.5 11.3z"/>
											</g>
										</g>
									</g>
								</g>
							</g>
						</g>
					</g>
					<g>
						<g>
							<g>
								<g>
									<g>
										<g>
											<g>
												<g>
													<path class="s2" d="m754.8 392.6l-11.8 17.6-59.6-37.1c-7.3-4.6-10-13.5-5.9-19.6 4.1-6.1 13.4-7 20.4-2z"/>
												</g>
											</g>
										</g>
									</g>
								</g>
							</g>
						</g>
						<g>
							<g>
								<g>
									<g>
										<g>
											<g>
												<g>
													<path fill-rule="evenodd" class="s2" d="m778 391.2l-27.6 41-7.4-22 11.8-17.6z"/>
												</g>
											</g>
										</g>
									</g>
								</g>
							</g>
						</g>
						<g>
							<g>
								<g>
									<g>
										<g>
											<g>
												<g>
													<path fill-rule="evenodd" class="s2" d="m698.7 438.2l26.3-39.2-23.5-14.6-11.1 48.3z"/>
												</g>
											</g>
										</g>
									</g>
								</g>
							</g>
						</g>
						<g>
							<g>
								<g>
									<g>
										<g>
											<g>
												<g>
													<path fill-rule="evenodd" class="s2" d="m763.8 341l-26.2 39.2-22.5-16.2 40.5-28.5z"/>
												</g>
											</g>
										</g>
									</g>
								</g>
							</g>
						</g>
					</g>
				</g>
				<g>
					<g>
						<g>
							<g>
								<g>
									<g>
										<g>
											<path class="s3" d="m591.6 815.6h-438.8c-13.8 0-25-11.2-25-25v-581.2c0-13.8 11.2-25 25-25h438.9c13.8 0 25 11.2 25 25v581.3c-0.1 13.7-11.3 24.9-25.1 24.9z"/>
										</g>
									</g>
								</g>
							</g>
						</g>
					</g>
				</g>
				<g>
					<g>
						<g>
							<g>
								<g>
									<g>
										<g>
											<path class="s1" d="m591.6 184.4h-438.8c-13.8 0-25 11.2-25 25v40c0-13.8 11.2-25 25-25h438.9c13.8 0 25 11.2 25 25v-40c-0.1-13.8-11.3-25-25.1-25z"/>
										</g>
									</g>
								</g>
							</g>
						</g>
					</g>
				</g>
				<g>
					<g>
						<g>
							<g>
								<g>
									<g>
										<g>
											<g>
												<path fill-rule="evenodd" class="s1" d="m164.7 805.6h20v10h-20z"/>
											</g>
										</g>
									</g>
								</g>
							</g>
						</g>
					</g>
					<g>
						<g>
							<g>
								<g>
									<g>
										<g>
											<g>
												<path class="s1" d="m184.7 785.9h-20v-19.7h20zm0-39.4h-20v-19.7h20zm0-39.5h-20v-19.7h20zm0-39.4h-20v-19.7h20zm0-39.4h-20v-19.7h20zm0-39.5h-20v-19.7h20zm0-39.4h-20v-19.7h20zm0-39.4h-20v-19.7h20zm0-39.5h-20v-19.7h20zm0-39.4h-20v-19.7h20zm0-39.5h-20v-19.7h20zm0-39.4h-20v-19.7h20zm0-39.4h-20v-19.7h20zm0-39.5h-20v-19.7h20zm0-39.4h-20v-19.7h20z"/>
											</g>
										</g>
									</g>
								</g>
							</g>
						</g>
					</g>
					<g>
						<g>
							<g>
								<g>
									<g>
										<g>
											<g>
												<path fill-rule="evenodd" class="s1" d="m164.7 184.4h20v10h-20z"/>
											</g>
										</g>
									</g>
								</g>
							</g>
						</g>
					</g>
				</g>
				<g>
					<g>
						<g>
							<g>
								<g>
									<g>
										<g>
											<path class="s2" d="m591.6 825.6h-438.8c-19.3 0-35-15.7-35-35v-581.2c0-19.3 15.7-35 35-35h438.9c19.3 0 35 15.7 35 35v581.3c-0.1 19.2-15.8 34.9-35.1 34.9zm-438.8-631.2c-8.3 0-15 6.7-15 15v581.3c0 8.3 6.7 15 15 15h438.9c8.3 0 15-6.7 15-15v-581.3c0-8.3-6.7-15-15-15z"/>
										</g>
									</g>
								</g>
							</g>
						</g>
					</g>
				</g>
				<g>
					<g>
						<g>
							<g>
								<g>
									<g>
										<g>
											<g>
												<path fill-rule="evenodd" class="s1" d="m395.9 626.9c-83.72 0-151.4-67.68-151.4-151.4 0-83.72 67.68-151.4 151.4-151.4 83.72 0 151.4 67.68 151.4 151.4 0 83.72-67.68 151.4-151.4 151.4z"/>
											</g>
										</g>
									</g>
								</g>
							</g>
						</g>
					</g>
					<g>
						<g>
							<g>
								<g>
									<g>
										<g>
											<g>
												<g>
													<path class="s2" d="m395.9 636.8c-89 0-161.4-72.4-161.4-161.4 0-89 72.4-161.4 161.4-161.4 89 0 161.4 72.4 161.4 161.4 0 89-72.4 161.4-161.4 161.4zm0-302.7c-78 0-141.4 63.4-141.4 141.4 0 78 63.4 141.4 141.4 141.4 78 0 141.4-63.4 141.4-141.4 0-78-63.4-141.4-141.4-141.4z"/>
												</g>
											</g>
										</g>
									</g>
								</g>
							</g>
						</g>
						<g>
							<g>
								<g>
									<g>
										<g>
											<g>
												<g>
													<path class="s2" d="m395.9 637.1c-49.5 0-88.4-71-88.4-161.6 0-90.6 38.8-161.6 88.4-161.6 49.5 0 88.4 71 88.4 161.6 0 90.6-38.8 161.6-88.4 161.6zm0-303.3c-37.1 0-68.4 64.9-68.4 141.6 0 76.8 31.3 141.6 68.4 141.6 37.1 0 68.4-64.9 68.4-141.6 0-76.7-31.3-141.6-68.4-141.6z"/>
												</g>
											</g>
										</g>
									</g>
								</g>
							</g>
						</g>
						<g>
							<g>
								<g>
									<g>
										<g>
											<g>
												<g>
													<g>
														<path fill-rule="evenodd" class="s2" d="m385.9 323.8h20v303.3h-20z"/>
													</g>
												</g>
											</g>
										</g>
									</g>
								</g>
							</g>
						</g>
						<g>
							<g>
								<g>
									<g>
										<g>
											<g>
												<g>
													<g>
														<path class="s2" d="m287.1 581.2l-10.1-17.3c30.3-17.8 73.6-28 118.9-28 45.3 0 88.6 10.2 118.9 28l-10.1 17.2c-27.3-16-67-25.2-108.8-25.2-41.8 0-81.5 9.2-108.8 25.3z"/>
													</g>
												</g>
											</g>
										</g>
									</g>
								</g>
							</g>
							<g>
								<g>
									<g>
										<g>
											<g>
												<g>
													<g>
														<path class="s2" d="m395.9 415c-45.3 0-88.6-10.2-118.9-28l10.1-17.2c27.3 16 67 25.2 108.8 25.2 41.8 0 81.5-9.2 108.8-25.2l10.1 17.2c-30.2 17.8-73.6 28-118.9 28z"/>
													</g>
												</g>
											</g>
										</g>
									</g>
								</g>
							</g>
						</g>
						<g>
							<g>
								<g>
									<g>
										<g>
											<g>
												<g>
													<g>
														<path fill-rule="evenodd" class="s2" d="m244.3 465.5h303.3v20h-303.3z"/>
													</g>
												</g>
											</g>
										</g>
									</g>
								</g>
							</g>
						</g>
					</g>
				</g>
				<g>
					<g>
						<g>
							<g>
								<g>
									<g>
										<g>
											<path class="s1" d="m524.8 741h-257.9c-11 0-20-9-20-20 0-11 9-20 20-20h257.9c11 0 20 9 20 20 0 11-9 20-20 20z"/>
										</g>
									</g>
								</g>
							</g>
						</g>
					</g>
				</g>
			</g>
		</g>
	</g>
</svg>